<svg fill="none" height="100%" width="100%" viewBox="0 0 192 192" xmlns:xlink="http://www.w3.org/1999/xlink" xmlns="http://www.w3.org/2000/svg"><g id="i0"><g transform="translate(129.77,124.5)"><g transform="scale(1.06,1.06)"><animateTransform repeatCount="indefinite" type="scale" attributeName="transform" dur="2.483s" begin="0s" calcMode="spline" values="1.06 1.06; 0.93 0.93; 1.06 1.06; 1.06 1.06" keyTimes="0; 0.120805; 0.281879; 1" keySplines="0.33 0 0.67 1; 0.33 0 0.67 1; 0 0 1 1" fill="freeze" /><g transform="translate(-96,-96)"><g id="i0"><g transform="matrix(0.563,0,0,0.563,0,0)"><path stroke-linejoin="round" stroke-linecap="round" stroke-width="16" stroke="#4c5863" d="M119.99,106.42C119.99,106.42,93.99,61.38,93.99,61.38C93.99,61.38,93.99,61.39,93.99,61.39C88.48,51.82,91.76,39.59,101.32,34.08C110.88,28.56,123.1,31.83,128.63,41.39C128.63,41.39,168.63,110.67,168.63,110.67" /></g><g transform="matrix(0.563,0,0,0.563,0,0)"><path stroke-linejoin="round" stroke-linecap="round" stroke-width="16" stroke="#4c5863" d="M89.35,133.35C89.35,133.35,51.35,67.53,51.35,67.53C48.69,62.94,47.97,57.47,49.35,52.35C50.72,47.23,54.07,42.84,58.67,40.19C63.27,37.54,68.73,36.82,73.85,38.2C78.97,39.58,83.34,42.93,85.99,47.53C85.99,47.53,119.99,106.42,119.99,106.42" /></g><g transform="matrix(0.563,0,0,0.563,0,0)"><path stroke-linejoin="round" stroke-linecap="round" stroke-width="16" stroke="#4c5863" d="M153.99,165.31C148.68,156.13,147.25,145.2,150,134.96C152.74,124.71,159.44,115.98,168.63,110.67C168.63,110.67,158.63,93.35,158.63,93.35C155.98,88.75,155.25,83.29,156.62,78.17C158,73.04,161.34,68.66,165.94,66.01C170.54,63.36,176.01,62.63,181.13,64.01C186.25,65.39,190.63,68.75,193.28,73.35C193.28,73.35,213.28,107.99,213.28,107.99C223.89,126.37,226.77,148.2,221.28,168.7C215.79,189.2,202.38,206.67,184,217.28C165.62,227.89,143.78,230.77,123.28,225.28C102.79,219.78,85.32,206.37,74.71,187.99C74.71,187.99,32.71,115.24,32.71,115.24C27.2,105.68,30.48,93.46,40.04,87.94C49.6,82.42,61.82,85.68,67.35,95.24C67.35,95.24,89.35,133.35,89.35,133.35" /></g><g transform="matrix(0.563,0,0,0.563,0,0)"><path stroke-linejoin="round" stroke-linecap="round" stroke-width="16" stroke="#4c5863" d="M81.1,240C67.54,230.6,56.23,218.29,48,203.99" /></g><g transform="matrix(0.563,0,0,0.563,0,0)"><path stroke-linejoin="round" stroke-linecap="round" stroke-width="16" stroke="#4c5863" d="M176,31C185.12,31,194.1,33.41,202,37.97C209.9,42.54,216.47,49.1,221.03,57.01" /></g></g></g></g></g></g></svg>